<?xml version="1.0" encoding="UTF-8" standalone="no"?>
<!-- Created with Inkscape (http://www.inkscape.org/) -->

<svg
   width="250mm"
   height="250mm"
   viewBox="0 0 250 250"
   version="1.1"
   id="svg1"
   inkscape:version="1.3 (0e150ed6c4, 2023-07-21)"
   sodipodi:docname="gwat_logo_proj.svg"
   inkscape:export-filename="gwat_logo_proj.png"
   inkscape:export-xdpi="96"
   inkscape:export-ydpi="96"
   xmlns:inkscape="http://www.inkscape.org/namespaces/inkscape"
   xmlns:sodipodi="http://sodipodi.sourceforge.net/DTD/sodipodi-0.dtd"
   xmlns="http://www.w3.org/2000/svg"
   xmlns:svg="http://www.w3.org/2000/svg">
  <sodipodi:namedview
     id="namedview1"
     pagecolor="#505050"
     bordercolor="#eeeeee"
     borderopacity="1"
     inkscape:showpageshadow="0"
     inkscape:pageopacity="0"
     inkscape:pagecheckerboard="0"
     inkscape:deskcolor="#505050"
     inkscape:document-units="mm"
     inkscape:lockguides="false"
     showgrid="true"
     inkscape:zoom="0.72426347"
     inkscape:cx="655.83868"
     inkscape:cy="561.25984"
     inkscape:window-width="1920"
     inkscape:window-height="1009"
     inkscape:window-x="1912"
     inkscape:window-y="-8"
     inkscape:window-maximized="1"
     inkscape:current-layer="layer2">
    <inkscape:grid
       id="grid17"
       units="mm"
       originx="0"
       originy="0"
       spacingx="0.99999999"
       spacingy="0.99999999"
       empcolor="#0099e5"
       empopacity="0.30196078"
       color="#0099e5"
       opacity="0.14901961"
       empspacing="5"
       dotted="false"
       gridanglex="30"
       gridanglez="30"
       visible="true" />
  </sodipodi:namedview>
  <defs
     id="defs1">
    <inkscape:perspective
       sodipodi:type="inkscape:persp3d"
       inkscape:vp_x="0 : 174.31734 : 1"
       inkscape:vp_y="0 : 1000 : 0"
       inkscape:vp_z="250 : 173.95203 : 1"
       inkscape:persp3d-origin="125 : 83.333333 : 1"
       id="perspective1" />
  </defs>
  <g
     inkscape:groupmode="layer"
     id="layer3"
     inkscape:label="Layer 3"
     sodipodi:insensitive="true">
    <rect
       style="fill:#ffffff;fill-opacity:1;stroke:#0e64fc;stroke-width:7.8;stroke-linecap:round;stroke-linejoin:round;stroke-miterlimit:128.2;stroke-dasharray:none;stroke-opacity:1;paint-order:fill markers stroke"
       id="rect20"
       width="230"
       height="220"
       x="10.000001"
       y="15.000001"
       ry="44" />
  </g>
  <g
     inkscape:groupmode="layer"
     id="layer2"
     inkscape:label="Layer 2"
     transform="matrix(0.93598255,0,0,0.93598255,17.506521,11.261885)"
     style="display:inline">
    <path
       style="display:none;fill:#0e64fc;fill-opacity:1;stroke:#0e64fc;stroke-width:7.95154;stroke-linecap:round;stroke-linejoin:round;stroke-miterlimit:128.2;stroke-dasharray:none;stroke-opacity:1;paint-order:fill markers stroke"
       id="path20"
       d="m 36.611231,144.7489 c 4.802244,0.56232 9.407206,1.3002 13.760817,2.15116 3.330223,0.65091 12.943127,2.81506 15.206148,3.31756 9.844695,2.22842 19.327841,4.61474 29.321174,6.77828 3.043868,0.65899 6.10741,1.31069 9.26227,1.91531 3.49065,0.66895 7.00551,1.33074 10.66367,1.90338 3.04041,0.47595 6.26429,0.82454 9.39642,1.23681 3.69132,0.28837 7.33315,0.64968 11.07397,0.86517 4.22682,0.24346 8.51001,0.38428 12.78821,0.5093 4.38747,0.12819 8.78951,0.223 13.19485,0.24991 8.35201,0.051 18.26017,-0.13524 26.61286,-0.36265 3.59258,-0.0978 7.17095,-0.24216 10.75644,-0.36324 2.81817,-0.12916 5.63633,-0.25833 8.4545,-0.38751 0,0 -1.89062,-0.41986 -1.89062,-0.41986 v 0 c -2.72394,0.14902 -5.44789,0.29806 -8.17187,0.44709 -9.34237,0.37107 -13.40573,0.58712 -23.15406,0.7231 -9.74234,0.13591 -17.43278,0.10642 -27.10994,-0.19544 -4.33619,-0.13526 -8.67358,-0.2968 -12.95258,-0.55662 -3.78942,-0.23008 -7.47457,-0.60708 -11.21185,-0.91061 -3.12206,-0.4129 -6.31287,-0.77724 -9.36609,-1.23867 -5.24959,-0.79338 -12.06927,-2.21524 -16.664619,-3.20562 -9.977278,-2.15022 -19.447339,-4.52264 -29.212841,-6.76506 -2.96769,-0.66603 -5.885511,-1.35486 -8.903067,-1.99815 -7.798501,-1.66249 -15.82164,-3.28035 -24.605245,-4.37737 z" />
    <path
       style="fill:#0e64fc;fill-opacity:1;stroke:#0e64fc;stroke-width:1.28208;stroke-linecap:round;stroke-linejoin:bevel;stroke-miterlimit:128.2;stroke-dasharray:none;stroke-dashoffset:0;stroke-opacity:1;paint-order:fill markers stroke"
       id="path45"
       d="m 28.273924,21.186433 c 4.751459,1.820478 9.312249,4.130577 13.686613,6.724842 2.974736,1.764196 7.889647,5.442029 10.157646,7.070915 10.063809,7.922943 18.62272,17.575442 25.813542,28.152906 5.390771,7.929646 6.770536,10.92628 11.401501,19.364992 8.386106,15.801798 14.288684,32.735862 21.845384,48.920052 1.38918,2.97522 2.88872,5.89765 4.33308,8.84646 5.10349,9.84652 10.9509,19.32862 17.78707,28.07262 3.79497,4.85405 4.76114,5.74307 8.8574,10.22634 6.29086,6.6313 13.31268,12.4839 20.7112,17.82729 2.94501,2.0751 6.00049,3.97981 9.07601,5.85213 1.96932,0.77999 3.64026,2.35254 5.6446,3.13778 1.17293,0.45952 2.40128,0.82053 3.58979,1.23763 3.61122,1.18392 7.22989,2.33995 10.8799,3.3988 1.29432,0.38714 2.60454,0.70859 3.92373,0.9964 0,0 -3.27045,-2.48524 -3.27045,-2.48524 v 0 c -1.2848,-0.28067 -2.56355,-0.58562 -3.82623,-0.95574 -3.65951,-1.05393 -7.28503,-2.21661 -10.89193,-3.43854 -1.21804,-0.43733 -2.47006,-0.83136 -3.65935,-1.34548 -0.23256,-0.10053 -0.45761,-0.21773 -0.68374,-0.33201 -0.21028,-0.10627 -0.82771,-0.45013 -0.62531,-0.32953 0.91106,0.54291 1.83463,1.06454 2.75194,1.5968 -3.16068,-1.91075 -6.32367,-3.81696 -9.35658,-5.92992 -7.58774,-5.35644 -14.77502,-11.25986 -21.22923,-17.95845 -4.17975,-4.52341 -5.09208,-5.344 -8.97699,-10.24231 -6.95387,-8.76783 -12.95205,-18.26456 -18.14555,-28.17005 -4.5692,-9.24457 -4.37516,-8.58724 -8.55942,-18.13616 C 103.68367,109.99595 98.524592,96.38607 91.690289,83.55616 87.311353,75.508708 85.541809,71.805513 80.458775,64.227693 73.380473,53.675323 64.896021,44.051462 54.962425,36.107504 52.775164,34.516243 50.658178,32.823605 48.400641,31.333721 45.44843,29.385374 42.391053,27.600149 39.345611,25.801011 34.728928,23.073637 29.943829,20.615047 24.970282,18.605502 Z" />
    <path
       style="fill:#0e64fc;fill-opacity:1;stroke:#0e64fc;stroke-width:0;stroke-linecap:round;stroke-linejoin:bevel;stroke-miterlimit:128.2;stroke-dasharray:none;stroke-dashoffset:0;stroke-opacity:1;paint-order:fill markers stroke"
       id="path46"
       d="m 102.15835,101.77362 c -1.52824,-3.362465 -2.813148,-6.812252 -3.988098,-10.312322 -1.300531,-4.362071 -2.403592,-8.843159 -2.656401,-13.407171 -0.179242,-3.235863 -1.152993,-4.558582 -0.967772,-7.819788 0.579118,-5.588612 1.730626,-11.084348 3.205188,-16.503769 0.511871,-1.881262 1.068839,-5.119788 1.650559,-7.000943 1.061364,-3.419823 2.498664,-6.239564 3.691424,-9.615564 0.6618,-1.808766 1.65106,-3.479199 2.13679,-5.34198 0.48356,-2.039373 0.76829,-4.338195 1.06839,-6.410376 0.1678,-1.227639 -0.144,-2.047134 0,-3.205188 v 0 c 0,0 -0.91753,1.976596 -1.06839,3.205188 -0.29344,2.05831 -0.58732,3.316755 -1.0684,5.34198 -0.48251,1.854931 -2.56904,6.738738 -3.20519,8.547168 -1.082416,3.436897 -2.18136,6.160643 -3.205183,9.615564 -0.581063,2.004052 -1.619415,4.39607 -2.136792,6.410376 -1.403664,5.464915 -2.470284,7.364421 -3.147143,12.966071 -0.198696,2.948328 -0.435975,5.198962 -0.307706,8.144921 0.199004,4.570544 1.325542,9.05737 2.542917,13.442412 1.088639,3.427164 2.260615,6.818485 3.627347,10.145431 z"
       sodipodi:nodetypes="ccscscccccsccccscsccc" />
    <path
       style="fill:#0e64fc;fill-opacity:1;stroke:#0e64fc;stroke-width:0.954863;stroke-linecap:round;stroke-linejoin:bevel;stroke-miterlimit:128.2;stroke-dasharray:none;stroke-dashoffset:0;stroke-opacity:1;paint-order:fill markers stroke"
       id="path47"
       d="m 98.65124,95.59962 c -2.199856,-2.798908 -4.38286,-5.636898 -6.802578,-8.178388 -0.836109,-0.878184 -1.712598,-1.701375 -2.568898,-2.552064 -2.637445,-2.451395 -5.412106,-4.692342 -8.34518,-6.623783 -2.956425,-1.946821 -4.598308,-3.063007 -7.471669,-4.453323 -0.853979,-0.41321 -1.728671,-0.764161 -2.593009,-1.14624 -4.927974,-2.096441 -10.159373,-2.680028 -15.301754,-3.609587 -3.738997,-0.689159 -7.46259,-1.511836 -11.14354,-2.552717 -2.11264,-0.597403 -3.632327,-1.112164 -5.71922,-1.789578 -2.960133,-1.064701 -5.917569,-2.174058 -8.749339,-3.658422 -0.447438,-0.234539 -2.186756,-1.223343 -2.701973,-1.51503 -0.798088,-0.473425 -1.596817,-0.939172 -2.372896,-1.460834 0,0 2.203884,2.097217 2.203884,2.097217 v 0 c 0.758453,0.480098 1.530725,0.926126 2.304801,1.37032 0.649492,0.359854 2.036662,1.134682 2.649201,1.445265 2.805509,1.422507 5.727862,2.484517 8.649159,3.51786 5.566987,1.780551 11.180383,3.372985 16.897642,4.331607 5.131387,0.950956 10.353677,1.541819 15.268255,3.656639 6.308145,2.81897 -1.206094,-0.606267 5.164129,2.516037 0.202241,0.09913 0.438224,0.09218 0.63162,0.213396 2.967548,1.860006 5.710999,4.179479 8.372347,6.584749 0.843023,0.837909 1.708113,1.64587 2.52907,2.513725 2.315497,2.447775 4.400627,5.193946 6.436827,7.958579 z" />
    <path
       style="fill:#0e64fc;fill-opacity:1;stroke:#0e64fc;stroke-width:0;stroke-linecap:round;stroke-linejoin:bevel;stroke-miterlimit:128.2;stroke-dasharray:none;stroke-dashoffset:0;stroke-opacity:1;paint-order:fill markers stroke"
       id="path48"
       d="m 136.41285,170.44827 c -3.14437,-2.45773 -6.82246,-3.71352 -10.59312,-4.7389 -3.0983,-0.83855 -6.28599,-1.14626 -9.48035,-1.2926 -3.73435,-0.0332 -7.46251,-0.15587 -11.18833,-0.41016 -2.64848,-0.25879 -5.291609,-0.56847 -7.921067,-0.97793 -1.906969,-0.46533 -3.340159,-0.0789 -5.118138,0.54662 -0.668606,0.1999 -3.055284,1.54125 -3.722272,1.74628 v 0 l 2.555426,-0.32915 c 0,0 1.866464,-0.52754 2.532684,-0.73924 1.765985,-0.61272 5.601206,-0.1556 7.478767,0.26025 2.6073,0.38703 5.91878,0.60583 8.54717,0.80814 3.74343,0.22087 5.86647,0.19522 9.61557,0.27241 3.16586,0.1639 5.48138,0.68132 8.54716,1.53367 1.62179,0.46155 4.54344,1.95895 6.09729,2.62103 0.38958,0.166 1.50192,0.77267 1.15402,0.53122 -0.90447,-0.62773 -1.88084,-1.14527 -2.83363,-1.69691 -0.14349,-0.0831 0.26932,0.19346 0.40398,0.2902 z"
       sodipodi:nodetypes="ccccccccscccccssscc" />
    <path
       style="fill:#0e64fc;fill-opacity:1;stroke:#0e64fc;stroke-width:0.8547167;stroke-linecap:round;stroke-linejoin:bevel;stroke-miterlimit:128.2;stroke-dasharray:none;stroke-dashoffset:0;stroke-opacity:1;paint-order:fill markers stroke"
       id="path49"
       d="m 169.3338,174.93715 c 1.32217,3.2136 -6.09326,3.81503 -7.16166,9.15701 1.29867,3.13975 0.32932,2.76117 -0.31711,6.86893 0.6467,0.83398 1.21832,2.37173 2.13679,3.32955 0.45599,0.42988 0.65314,0.91222 1.06839,1.40623 0.50903,0.7319 0.81315,1.40914 1.35953,2.09706 0.37653,0.55088 0.81349,1.00038 1.30087,1.37636 0.75727,0.55295 1.51104,1.11389 2.27182,1.65887 0.15997,0.11459 0.65165,0.42946 0.49276,0.31241 -0.60608,-0.44647 -1.21114,-0.89552 -1.82304,-1.32876 -0.0464,-0.0329 0.17275,0.15062 0.49166,0.41869 7.57338,5.58811 -4.75766,-3.52282 2.71845,2.01148 l -1.87028,-1.93903 v 0 c 6.23764,4.63617 -4.7349,-3.5241 1.38526,1.04042 -0.93241,-0.73047 -1.76216,-1.37921 -2.77227,-2.12596 -0.0831,-0.0614 -0.17138,-0.11017 -0.2572,-0.16493 -0.0803,-0.0511 -0.31798,-0.21169 -0.24096,-0.15293 0.6119,0.467 1.23082,0.91869 1.84623,1.37805 -0.49087,-0.37095 -0.97861,-0.74027 -1.34202,-1.32174 -0.55364,-0.66949 -1.06343,-1.3869 -1.52779,-2.16112 -0.40654,-0.52237 -0.85668,-0.98453 -1.33664,-1.39319 -0.94353,-0.95272 -1.84062,-1.97508 -2.54864,-3.23268 -1.6855,-2.87717 1.01834,-4.43511 -0.28453,-7.61916 -1.31453,-3.12999 8.13381,-6.40048 6.94961,-9.61556 z"
       sodipodi:nodetypes="cccccccssscccscscccccccccc" />
    <path
       style="fill:#0e64fc;fill-opacity:1;stroke:#0e64fc;stroke-width:0.301549;stroke-linecap:round;stroke-linejoin:bevel;stroke-miterlimit:128.2;stroke-dasharray:none;stroke-dashoffset:0;stroke-opacity:1;paint-order:fill markers stroke"
       id="path50"
       d="m 120.13138,141.20724 c -0.16439,-3.20153 0.2759,-6.37892 0.71357,-9.53033 0.74534,-4.54997 1.52351,-9.10147 2.48935,-13.59974 0.47638,-2.21869 1.1155,-4.74536 1.65715,-6.94596 1.6595,-6.44648 4.79157,-19.688372 6.94849,-25.939327 2.08048,-5.588505 3.20519,-8.547168 4.36462,-9.802926 0.21553,-0.60595 0.85368,-1.614675 0.97736,-2.680295 l -2.13679,-0.760131 -0.56676,1.738811 c -1.91441,5.67158 -2.65719,8.062718 -4.77522,13.641333 -2.12993,6.278001 -6.11584,15.532585 -7.72114,22.014225 -1.65471,6.77333 -3.04936,13.61825 -4.2922,20.50297 -0.48665,3.12111 -0.95939,6.26628 -0.99046,9.44329 z"
       sodipodi:nodetypes="ccsccccccccccc" />
    <path
       style="fill:#0e64fc;fill-opacity:1;stroke:#0e64fc;stroke-width:0;stroke-linecap:round;stroke-linejoin:bevel;stroke-miterlimit:128.2;stroke-dasharray:none;stroke-dashoffset:0;stroke-opacity:1;paint-order:fill markers stroke"
       id="path51"
       d="m 136.42772,74.811875 c -0.36517,-5.06882 -1.28259,-8.85112 -2.66792,-14.1931 -0.92592,-5.4833 -1.13647,-7.008156 -2.25402,-12.357271 -0.10639,-0.47229 -1.59625,-4.817447 -1.70263,-5.289735 l -0.69888,-2.443287 0.1995,0.697439 c 0,0 0.0332,0.254539 0.1495,0.730527 1.18007,5.360913 2.3,10.771258 3.22087,16.319988 1.66062,10.585485 2.47099,9.167015 2.21439,14.094695 z"
       sodipodi:nodetypes="cccccscccc" />
    <path
       style="fill:#0e64fc;fill-opacity:1;stroke:#0e64fc;stroke-width:0;stroke-linecap:round;stroke-linejoin:bevel;stroke-miterlimit:128.2;stroke-dasharray:none;stroke-dashoffset:0;stroke-opacity:1;paint-order:fill markers stroke"
       id="path52"
       d="m 137.28192,73.439527 c -1.72612,4.884039 3.20519,-9.615564 8.15433,-19.231128 4.20547,-7.781432 8.30449,-21.36792 8.94,-22.436316 l 1.18505,-3.129424 v 0 c -0.7558,0.661269 -11.87639,28.576459 -16.14259,36.2497 -1.0684,2.671064 -1.22159,2.806019 -3.62761,7.478772 z"
       sodipodi:nodetypes="cccccccc" />
  </g>
  <g
     inkscape:label="Layer 1"
     inkscape:groupmode="layer"
     id="layer1"
     transform="matrix(0.93598255,0,0,0.93598255,17.506521,11.261885)">
    <text
       xml:space="preserve"
       style="font-size:70.5556px;font-family:'Futura BdCn BT';-inkscape-font-specification:'Futura BdCn BT';letter-spacing:-0.0555625px;fill:#0d203c;fill-opacity:1;stroke:#1c67ee;stroke-width:0;stroke-linecap:round;stroke-linejoin:round;stroke-miterlimit:128.2;paint-order:fill markers stroke"
       x="8.9232941"
       y="146.63211"
       id="text18"><tspan
         sodipodi:role="line"
         id="tspan18"
         style="font-style:normal;font-variant:normal;font-weight:normal;font-stretch:normal;font-size:70.5556px;font-family:'Futura Hv BT';-inkscape-font-specification:'Futura Hv BT';fill:#0d203c;fill-opacity:1;stroke-width:0"
         x="8.9232941"
         y="146.63211">GWAT</tspan></text>
  </g>
</svg>
